<?xml version="1.0" encoding="UTF-8" standalone="no"?>
<svg xmlns:dc="http://purl.org/dc/elements/1.1/" xmlns:cc="http://creativecommons.org/ns#" xmlns:rdf="http://www.w3.org/1999/02/22-rdf-syntax-ns#" xmlns:svg="http://www.w3.org/2000/svg" xmlns="http://www.w3.org/2000/svg" xmlns:sodipodi="http://sodipodi.sourceforge.net/DTD/sodipodi-0.dtd" xmlns:inkscape="http://www.inkscape.org/namespaces/inkscape" height="97.596mm" width="409.44mm" version="1.1" viewBox="0 0 1450.7722 345.81154" id="svg4568" inkscape:version="0.91 r13725" sodipodi:docname="optimized_smsadvertv9.svg">
  <metadata id="metadata4611">
    <rdf:RDF>
      <cc:Work rdf:about="">
        <dc:format>image/svg+xml</dc:format>
        <dc:type rdf:resource="http://purl.org/dc/dcmitype/StillImage"/>
      </cc:Work>
    </rdf:RDF>
  </metadata>
  <sodipodi:namedview pagecolor="#ffffff" bordercolor="#666666" borderopacity="1" objecttolerance="10" gridtolerance="10" guidetolerance="10" inkscape:pageopacity="0" inkscape:pageshadow="2" inkscape:window-width="1865" inkscape:window-height="1056" id="namedview4609" showgrid="false" inkscape:zoom="0.46630357" inkscape:cx="593.39189" inkscape:cy="261.64492" inkscape:window-x="55" inkscape:window-y="24" inkscape:window-maximized="1" inkscape:current-layer="g4577"/>
  <defs id="defs4570">
    <linearGradient id="a" y2="-947.54" gradientUnits="userSpaceOnUse" x2="798.64" y1="288.57" x1="798.64">
      <stop stop-color="#ff4626" offset="0" id="stop4573"/>
      <stop stop-color="#ff6833" offset="1" id="stop4575" style="stop-color:#ff5531;stop-opacity:1"/>
    </linearGradient>
  </defs>
  <g transform="translate(-7.9291 -353.28)" id="g4577">
    <g transform="matrix(.27725 0 0 .27725 -32.449 614.87)" id="g4579">
      <path d="m147.86-1170.1c-122.75 0-228.78 105.88-228.78 228.77v1242.8c0 122.89 105.88 228.78 228.78 228.78h1242.8c122.9 0 228.78-105.88 228.78-228.78v-1242.8c0-122.9-106.03-228.77-228.78-228.77h-1242.8z" transform="matrix(.73352 0 0 .73352 204.99 -85.239)" fill="url(#a)" id="path4581"/>
      <g fill="#fff" transform="matrix(4.8159 0 0 4.8159 -1381.8 -2346.8)" id="g4583">
        <g transform="translate(.079617 18.151)" id="g4585">
          <path d="m374.35 480.61c0.5864-0.77809 17.913-9.8619 38.504-20.186s38.316-19.912 39.391-21.306c1.08-1.4-11.08-22.49-27.01-46.87s-27.95-45.58-26.72-47.11c2.6487-3.2898 112.49-25.219 114.23-22.804 0.65317 0.90969-10.442 15.348-24.657 32.085-14.214 16.737-25.763 31.887-25.664 33.668 0.0992 1.7798 12.981 22.931 28.626 47.003 15.645 24.071 28.174 44.135 27.841 44.585-1.0016 1.3617-128.11 4.4958-137.17 3.3826-4.634-0.56915-7.9457-1.6714-7.359-2.4495z" id="path4587"/>
        </g>
      </g>
    </g>
    <g fill="#888" transform="matrix(1.0218 -.0081337 .0093626 .97856 0 0)" id="g4589">
      <path d="m486.33 525.92q-0.92891 1.6256-2.6706 1.6256-1.2772 0-3.2512-1.3934-1.9739-1.5095-5.3412-3.2512-3.2512-1.8578-8.128-3.2512-4.8768-1.5095-11.844-1.5095-6.2701 0-11.495 1.8578-5.109 1.7417-8.8246 4.7606-3.5995 3.019-5.5735 7.0829-1.9739 3.9479-1.9739 8.3602 0 5.4573 2.7867 9.0569 2.7867 3.5995 7.199 6.154 4.5284 2.5545 10.334 4.4123 5.8057 1.8578 11.727 3.7156 6.0379 1.8578 11.844 4.1801 5.8057 2.2062 10.218 5.5734 4.5284 3.3673 7.3152 8.2441 2.7867 4.8768 2.7867 11.844 0 7.5474-2.6706 14.05-2.6706 6.5024-7.8957 11.263-5.109 4.7607-12.656 7.5474-7.5474 2.7867-17.301 2.7867-12.192 0-21.017-3.8318-8.8246-3.9479-15.791-10.218l2.5545-3.9479q0.58056-0.92891 1.2772-1.3934 0.81279-0.46445 2.09-0.46445 1.5095 0 3.5995 1.8578 2.2062 1.8578 5.8057 4.064 3.5995 2.09 8.8246 3.9479 5.3412 1.8578 13.121 1.8578 7.3152 0 12.889-1.9739 5.5734-2.09 9.2891-5.5735 3.7156-3.4834 5.5734-8.128 1.9739-4.7606 1.9739-9.9858 0-5.8057-2.7867-9.6374-2.7867-3.8318-7.3152-6.5024-4.5284-2.6706-10.334-4.5284-5.6896-1.8578-11.727-3.7156-6.0379-1.8578-11.844-4.064-5.6896-2.2062-10.218-5.5734-4.5284-3.3673-7.3152-8.128-2.7867-4.8768-2.7867-12.076 0-6.154 2.6706-11.844 2.6706-5.6896 7.5474-9.9858 4.9929-4.2962 12.076-6.8507 7.0829-2.5545 15.908-2.5545 10.566 0 18.694 3.019 8.2441 3.019 14.979 9.2891l-2.3223 3.8318z" id="path4591"/>
      <path d="m521.7 627.17v-115.53h6.154q2.9028 0 3.3673 2.9028l1.045 16.72q6.7346-9.6374 15.443-15.559 8.7085-5.9218 19.623-5.9218 12.656 0 20.204 7.3152 7.6635 7.3152 10.334 20.32 2.09-7.0829 5.8057-12.308 3.8318-5.2251 8.7085-8.5924 4.8768-3.4834 10.566-5.109 5.8057-1.6256 11.844-1.6256 8.5924 0 15.443 2.9028 6.8507 2.7867 11.611 8.3602 4.7607 5.5734 7.3152 13.701 2.5545 8.128 2.5545 18.578v73.848h-11.031v-73.848q0-16.953-7.3152-25.777-7.3152-8.9408-20.9-8.9408-6.0379 0-11.611 2.2062-5.4573 2.2062-9.7535 6.6185-4.1801 4.2962-6.7346 10.799-2.4384 6.5024-2.4384 15.095v73.848h-11.147v-73.848q0-16.836-6.7346-25.777-6.6185-8.9408-19.507-8.9408-9.4052 0-17.417 5.5734-8.0118 5.5735-14.282 15.443v87.55h-11.147z" id="path4593"/>
      <path d="m772.08 525.92q-0.92891 1.6256-2.6706 1.6256-1.2772 0-3.2512-1.3934-1.9739-1.5095-5.3412-3.2512-3.2512-1.8578-8.128-3.2512-4.8768-1.5095-11.844-1.5095-6.2701 0-11.495 1.8578-5.109 1.7417-8.8246 4.7606-3.5995 3.019-5.5734 7.0829-1.9739 3.9479-1.9739 8.3602 0 5.4573 2.7867 9.0569 2.7867 3.5995 7.199 6.154 4.5284 2.5545 10.334 4.4123 5.8057 1.8578 11.727 3.7156 6.0379 1.8578 11.844 4.1801 5.8057 2.2062 10.218 5.5734 4.5284 3.3673 7.3152 8.2441 2.7867 4.8768 2.7867 11.844 0 7.5474-2.6706 14.05-2.6706 6.5024-7.8957 11.263-5.109 4.7607-12.656 7.5474-7.5474 2.7867-17.301 2.7867-12.192 0-21.017-3.8318-8.8246-3.9479-15.791-10.218l2.5545-3.9479q0.58057-0.92891 1.2772-1.3934 0.81279-0.46445 2.09-0.46445 1.5095 0 3.5995 1.8578 2.2062 1.8578 5.8057 4.064 3.5995 2.09 8.8246 3.9479 5.3412 1.8578 13.121 1.8578 7.3152 0 12.889-1.9739 5.5734-2.09 9.2891-5.5735 3.7156-3.4834 5.5734-8.128 1.9739-4.7606 1.9739-9.9858 0-5.8057-2.7867-9.6374-2.7867-3.8318-7.3152-6.5024-4.5284-2.6706-10.334-4.5284-5.6896-1.8578-11.727-3.7156-6.0379-1.8578-11.844-4.064-5.6896-2.2062-10.218-5.5734-4.5284-3.3673-7.3152-8.128-2.7867-4.8768-2.7867-12.076 0-6.154 2.6706-11.844 2.6706-5.6896 7.5474-9.9858 4.9929-4.2962 12.076-6.8507 7.0829-2.5545 15.908-2.5545 10.566 0 18.694 3.019 8.2441 3.019 14.979 9.2891l-2.3223 3.8318z" id="path4595"/>
      <path d="m878.51 627.17q-3.4834 0-4.2962-3.2512l-1.6256-14.746q-4.7606 4.6445-9.5213 8.3602-4.6445 3.7156-9.7535 6.2701t-11.031 3.8318q-5.9218 1.3934-13.005 1.3934-5.9218 0-11.495-1.7417-5.5734-1.7417-9.9858-5.3412-4.2962-3.5995-6.9668-9.173-2.5545-5.6896-2.5545-13.585 0-7.3152 4.1801-13.585 4.1801-6.2701 13.121-10.915 8.9408-4.6446 22.874-7.4313 14.05-2.7867 33.673-3.2512v-12.076q0-16.024-6.9668-24.616-6.8507-8.7085-20.436-8.7085-8.3602 0-14.282 2.3223-5.8057 2.3223-9.8697 5.109t-6.6185 5.109-4.2962 2.3223q-1.2772 0-2.09-0.58057-0.81279-0.58056-1.3934-1.5095l-1.9739-3.3673q9.0569-9.0569 19.043-13.701 9.9858-4.6445 22.642-4.6445 9.2891 0 16.256 3.019 6.9668 2.9028 11.495 8.4763 4.6445 5.4573 6.9668 13.353 2.3223 7.7796 2.3223 17.417v75.242h-4.4123zm-46.445-6.154q6.7346 0 12.308-1.3934 5.6896-1.5095 10.45-4.064 4.8768-2.6706 9.0569-6.2701t8.2441-7.7796v-30.073q-16.488 0.46445-28.448 2.5545-11.96 1.9739-19.739 5.4573-7.6635 3.4834-11.379 8.3602-3.5995 4.7607-3.5995 10.915 0 5.8057 1.8578 10.102 1.9739 4.1801 5.109 6.9668 3.2512 2.6706 7.4313 3.9479 4.1801 1.2772 8.7085 1.2772z" id="path4597"/>
      <path d="m1003.8 627.17q-3.019 0-3.4834-3.019l-1.1612-18.23q-7.6635 10.45-17.882 16.604t-22.99 6.154q-21.365 0-33.208-14.746-11.844-14.746-11.844-44.239 0-12.656 3.2512-23.571 3.3673-11.031 9.7535-19.043 6.3862-8.128 15.675-12.772 9.4052-4.6445 21.597-4.6445 11.727 0 20.32 4.4123 8.5924 4.2962 14.979 12.656v-68.507h11.031v168.95h-6.0379zm-42.382-7.4313q11.379 0 20.668-5.9218 9.4052-5.9218 16.72-16.604v-60.611q-6.6185-9.9858-14.746-14.05-8.0118-4.1801-18.346-4.1801-10.218 0-17.881 3.7156-7.6635 3.7156-12.889 10.566-5.109 6.7346-7.7796 16.256-2.5545 9.4052-2.5545 20.784 0 25.777 9.4052 37.969 9.5213 12.076 27.403 12.076z" id="path4599"/>
      <path d="m1091.8 627.17h-9.7536l-48.768-115.53h8.7085q1.6256 0 2.6706 0.92891 1.0451 0.81279 1.3934 1.8578l38.201 91.149q1.7417 4.9929 2.7867 9.9858 1.045-4.9929 2.9029-9.9858l38.317-91.149q0.5806-1.2772 1.5095-1.9739 1.045-0.81279 2.4384-0.81279h8.3602l-48.768 115.53z" id="path4601"/>
      <path d="m1206.9 509.78q9.7535 0 18.114 3.3673 8.3602 3.3673 14.514 9.8697 6.154 6.3862 9.6374 15.791 3.5995 9.4052 3.5995 21.597 0 2.5545-0.6966 3.4834-0.6967 0.92891-2.3223 0.92891h-84.066v2.2062q0 13.005 3.019 22.874 3.019 9.8696 8.5924 16.604 5.5735 6.6185 13.469 9.9858 7.8957 3.3673 17.649 3.3673 8.7086 0 15.095-1.8578 6.3863-1.9739 10.682-4.2962 4.4123-2.4384 6.9668-4.2962 2.5545-1.9739 3.7156-1.9739 1.5095 0 2.3223 1.1611l3.0189 3.7156q-2.7867 3.4834-7.4312 6.5024-4.5285 3.019-10.218 5.2251-5.5735 2.09-12.076 3.3673-6.3863 1.2772-12.889 1.2772-11.844 0-21.597-4.064-9.7535-4.1801-16.72-12.076-6.9669-7.8957-10.799-19.275-3.7156-11.495-3.7156-26.242 0-12.424 3.4834-22.874 3.5995-10.566 10.218-18.114 6.7346-7.6635 16.372-11.96 9.7535-4.2962 22.062-4.2962zm0.1161 8.2441q-8.9408 0-16.024 2.7867-7.0829 2.7867-12.308 8.0118-5.109 5.2251-8.3602 12.54-3.1351 7.3152-4.1801 16.372h76.635q0-9.2891-2.6706-16.604-2.5545-7.4313-7.3152-12.54-4.7607-5.109-11.379-7.7796-6.5024-2.7867-14.398-2.7867z" id="path4603"/>
      <path d="m1282.8 627.17v-115.53h5.9218q1.9739 0 2.7867 0.81279 0.8128 0.8128 1.0451 2.7867l0.8128 24.268q2.6706-7.0829 6.0379-12.54 3.4834-5.5734 7.8957-9.4052 4.5284-3.8318 9.9858-5.8057 5.5734-2.09 12.308-2.09 3.5995 0 7.0829 0.69668 3.4834 0.58056 6.1541 2.2062l-0.929 7.6635q-0.5805 1.8578-2.2061 1.8578-1.3934 0-4.2962-0.8128-2.7867-0.81279-7.4313-0.81279-6.7346 0-11.96 2.09-5.2251 2.09-9.2891 6.154-4.064 3.9479-7.199 9.9858-3.019 5.9218-5.5735 13.701v74.777h-11.147z" id="path4605"/>
      <path d="m1396.5 629.03q-11.728 0-18.346-6.5024-6.5023-6.5024-6.5023-20.088v-78.957h-16.604q-1.2772 0-2.09-0.69668t-0.8128-1.9739v-4.2962l19.739-1.3934 2.7867-41.336q0.2322-1.045 0.9289-1.8578t1.974-0.8128h5.2251v44.123h36.46v8.2441h-36.46v78.377q0 4.7607 1.1611 8.2441 1.2773 3.3673 3.3673 5.5735 2.2062 2.2062 5.109 3.2512t6.2701 1.045q4.1801 0 7.1991-1.1611 3.0189-1.2772 5.2251-2.6706 2.2061-1.5095 3.5995-2.6706 1.3934-1.2772 2.2062-1.2772 0.9289 0 1.8578 1.1611l3.0189 4.8768q-4.4123 4.8768-11.263 7.8957-6.7346 2.9028-14.05 2.9028z" id="path4607"/>
    </g>
  </g>
</svg>
